<?xml version="1.0" encoding="UTF-8"?>
<svg xmlns="http://www.w3.org/2000/svg" xmlns:xlink="http://www.w3.org/1999/xlink" width="24pt" height="24pt" viewBox="0 0 24 24" version="1.1">
<g id="surface419604">
<path style=" stroke:none;fill-rule:nonzero;fill:rgb(100%,100%,100%);fill-opacity:1;" d="M 12 3 C 8.933594 3 6.21875 4.53125 4.59375 6.875 C 4.324219 6.460938 4.078125 5.75 3.96875 5.03125 C 3.257812 5.730469 2.945312 7.011719 3.0625 8.71875 C 3.007812 8.792969 2.03125 10.058594 2.03125 11.25 C 2.027344 11.25 2.042969 11.519531 2.0625 11.59375 L 2.65625 11.125 C 2.445312 11.652344 2.328125 12.78125 2.34375 13.375 C 2.375 14.625 2.46875 16.324219 3.78125 18.21875 C 5.75 20.765625 8.269531 21.789062 11.25 21.96875 C 14.230469 22.144531 16.871094 21.210938 18.96875 18.84375 C 20.390625 17.101562 21.199219 15.734375 21.59375 13.84375 C 21.871094 12.523438 21.988281 11.058594 21.875 10.03125 C 21.785156 10.472656 21.570312 10.914062 21.34375 11.21875 C 21.316406 10.085938 21.25 8.859375 20.9375 7.96875 C 20.71875 7.371094 20.382812 6.519531 19.96875 5.96875 C 20.160156 6.726562 20.089844 7.414062 20.09375 7.84375 C 19.730469 6.566406 18.804688 5.417969 17.4375 4.84375 C 15.925781 3.691406 14.046875 3 12 3 Z M 12 4 C 12.78125 4 13.535156 4.132812 14.25 4.34375 C 14.160156 4.414062 14.078125 4.503906 14 4.5 C 15.304688 4.867188 16.199219 5.191406 16.3125 5.46875 C 15.832031 5.382812 15.382812 5.414062 15 5.5625 C 17.738281 6.640625 19.148438 8.453125 19 9.9375 C 18.800781 9.625 18.304688 9.121094 18 8.96875 C 18.417969 10.597656 18.558594 11.78125 18.21875 12.84375 C 17.984375 12.132812 17.628906 11.148438 17.4375 11 C 17.703125 13.183594 17.480469 15.351562 16.5 16.40625 C 16.59375 16.035156 16.605469 15.414062 16.5625 15 C 15.410156 16.730469 14.347656 17.507812 12.875 17.5625 C 12.027344 17.558594 10.996094 17.25 11 17.25 C 10.242188 16.996094 9.558594 16.566406 9.0625 15.9375 C 10.082031 16.222656 11.125 16.382812 11.75 16.0625 L 13.1875 15.1875 C 13.351562 15.125 13.476562 15.117188 13.625 15.1875 C 13.933594 15.144531 14.039062 14.992188 13.9375 14.71875 C 13.789062 14.511719 13.570312 14.320312 13.28125 14.15625 C 12.652344 13.828125 11.996094 13.878906 11.3125 14.3125 C 10.660156 14.679688 9.679688 14.3125 9 14.03125 C 8.75 13.925781 8.09375 13.40625 8.03125 13 C 7.960938 12.546875 8.117188 12.207031 8.46875 12.3125 C 8.367188 12.304688 9.5 12.503906 10.03125 12.65625 C 10.03125 12.058594 9.691406 11.460938 9.53125 11 C 10.027344 10.539062 10.683594 10.246094 11.0625 10.03125 C 11.519531 9.804688 11.480469 9.351562 11.3125 9.25 C 10.703125 9.308594 10.25 9.1875 10.25 9.1875 C 10.105469 9.144531 9.722656 8.964844 9.5 8.75 L 9.0625 8.34375 C 9.0625 8.34375 8.894531 8.207031 8.90625 8.125 C 9.070312 7.050781 9.878906 6.355469 10.40625 6 C 9.429688 6.121094 8.535156 6.558594 7.75 7.3125 C 7.222656 7.121094 6.390625 6.925781 5.6875 7.09375 C 7.152344 5.207031 9.433594 4 12 4 Z M 12 4 "/>
</g>
</svg>
