<?xml version="1.0" encoding="UTF-8"?>
<svg xmlns="http://www.w3.org/2000/svg" xmlns:xlink="http://www.w3.org/1999/xlink" width="24pt" height="24pt" viewBox="0 0 24 24" version="1.1">
<g id="surface191985">
<path style=" stroke:none;fill-rule:nonzero;fill:rgb(100%,100%,100%);fill-opacity:1;" d="M 5 3 C 3.90625 3 3 3.90625 3 5 L 3 19 C 3 20.09375 3.90625 21 5 21 L 19 21 C 20.09375 21 21 20.09375 21 19 L 21 5 C 21 3.90625 20.09375 3 19 3 Z M 5 5 L 19 5 L 19 19 L 5 19 Z M 12 6.273438 L 10.457031 9.925781 L 6.5 10.261719 L 9.5 12.859375 L 8.597656 16.726562 L 12 14.675781 L 15.402344 16.726562 L 14.5 12.851562 L 17.5 10.253906 L 13.542969 9.917969 Z M 12 6.273438 "/>
</g>
</svg>
